<svg xmlns="http://www.w3.org/2000/svg" xmlns:svg="http://www.w3.org/2000/svg" xmlns:xlink="http://www.w3.org/1999/xlink" id="svg4846" width="240" height="240" version="1.0"><defs id="defs4848"><linearGradient id="linearGradient5032"><stop style="stop-color:#ce1212;stop-opacity:1" id="stop5034" offset="0"/><stop style="stop-color:#ff1212;stop-opacity:1" id="stop5036" offset="1"/></linearGradient><linearGradient id="linearGradient5024"><stop style="stop-color:#fff;stop-opacity:1" id="stop5026" offset="0"/><stop style="stop-color:#fff;stop-opacity:0" id="stop5028" offset="1"/></linearGradient><radialGradient id="g5" cx="295.471" cy="186.096" r="179.55" gradientTransform="matrix(1.14292e-8,1.531256,-0.876504,-2.165967e-5,462.7486,-245.0023)" gradientUnits="userSpaceOnUse"><stop style="stop-color:#fff;stop-opacity:1" id="stop4889" offset="0"/><stop style="stop-color:#fff;stop-opacity:1" id="stop4891" offset=".5"/><stop style="stop-color:#d5d5d5;stop-opacity:1" id="stop4893" offset="1"/></radialGradient><linearGradient id="g4" x1="250.398" x2="412.094" y1="101.536" y2="264.542" gradientTransform="matrix(0.960006,0,0,0.960006,11.68071,9.787565)" gradientUnits="userSpaceOnUse"><stop style="stop-color:#ffd9d9;stop-opacity:1" id="stop4884" offset="0"/><stop style="stop-color:#ff2727;stop-opacity:1" id="stop4886" offset="1"/></linearGradient><linearGradient id="g3" x1="187.874" x2="581.837" y1="224.599" y2="483.1" gradientTransform="matrix(0.960006,0,0,0.960006,11.68071,9.787558)" gradientUnits="userSpaceOnUse"><stop style="stop-color:#ec6c60;stop-opacity:1" id="stop4879" offset="0"/><stop style="stop-color:#d11412;stop-opacity:1" id="stop4881" offset="1"/></linearGradient><linearGradient id="g2" x1="530.81" x2="174.805" y1="486.631" y2="211.23" gradientTransform="matrix(0.960006,0,0,0.960006,11.68071,9.787565)" gradientUnits="userSpaceOnUse"><stop style="stop-color:#9a0000;stop-opacity:1" id="stop4874" offset="0"/><stop style="stop-color:#f22803;stop-opacity:1" id="stop4876" offset="1"/></linearGradient><linearGradient id="g1" x1="41.195" x2="118.931" y1="616.477" y2="527.555" gradientTransform="matrix(4.556763,0,0,-4.315033,37.49756,2758.519)" gradientUnits="userSpaceOnUse"><stop style="stop-color:#b00;stop-opacity:1" id="stop4869" offset="0"/><stop style="stop-color:#5f0000;stop-opacity:1" id="stop4871" offset="1"/></linearGradient><radialGradient id="radialGradient4978" cx="295.471" cy="186.096" r="179.55" gradientTransform="matrix(0,0.2725026,-0.1559828,-3.8545592e-6,437.26559,613.56411)" gradientUnits="userSpaceOnUse" xlink:href="#g5"/><linearGradient id="linearGradient4981" x1="250.398" x2="412.094" y1="101.536" y2="264.542" gradientTransform="matrix(0.1708429,0,0,0.1708429,356.99346,658.90657)" gradientUnits="userSpaceOnUse" xlink:href="#g4"/><linearGradient id="linearGradient4984" x1="187.874" x2="581.837" y1="224.599" y2="483.1" gradientTransform="matrix(0.1708429,0,0,0.1708429,356.99346,658.90657)" gradientUnits="userSpaceOnUse" xlink:href="#g3"/><linearGradient id="linearGradient4987" x1="530.81" x2="174.805" y1="486.631" y2="211.23" gradientTransform="matrix(0.1708429,0,0,0.1708429,356.99346,658.90657)" gradientUnits="userSpaceOnUse" xlink:href="#g2"/><linearGradient id="linearGradient4990" x1="41.195" x2="118.931" y1="616.477" y2="527.555" gradientTransform="matrix(0.8109225,0,0,-0.7679041,361.58783,1148.0714)" gradientUnits="userSpaceOnUse" xlink:href="#g1"/><linearGradient id="linearGradient5030" x1="466.688" x2="466.688" y1="664.792" y2="709.067" gradientUnits="userSpaceOnUse" xlink:href="#linearGradient5024"/><linearGradient id="linearGradient5038" x1="-6.627" x2="16" y1="48" y2="-6.627" gradientUnits="userSpaceOnUse" xlink:href="#linearGradient5032"/><filter id="filter5068"><feGaussianBlur id="feGaussianBlur5070" stdDeviation=".164"/></filter><linearGradient id="linearGradient5099" x1="-6.627" x2="16" y1="48" y2="-6.627" gradientUnits="userSpaceOnUse" xlink:href="#linearGradient5032"/><linearGradient id="linearGradient5101" x1="466.688" x2="466.688" y1="664.792" y2="709.067" gradientUnits="userSpaceOnUse" xlink:href="#linearGradient5024"/><linearGradient id="linearGradient5125" x1="-6.627" x2="16" y1="48" y2="-6.627" gradientUnits="userSpaceOnUse" xlink:href="#linearGradient5032"/><linearGradient id="linearGradient5127" x1="466.688" x2="466.688" y1="664.792" y2="709.067" gradientUnits="userSpaceOnUse" xlink:href="#linearGradient5024"/><linearGradient id="linearGradient5153" x1="466.688" x2="466.688" y1="664.792" y2="709.067" gradientTransform="matrix(3.7565752,0,0,3.7565752,-1281.1474,-1839.9864)" gradientUnits="userSpaceOnUse" xlink:href="#linearGradient5024"/></defs><g id="layer1" transform="translate(-463.84454,-666.74359)"><g id="g5072"><path d="M 32.000001,1.0658141e-014 L 54.627418,9.3725836 L 64,32.000001 L 54.627416,54.627418 L 31.999999,64 L 9.3725824,54.627416 L 1.0658141e-014,31.999999 L 9.3725836,9.3725824 L 32.000001,1.0658141e-014 z" transform="matrix(3.5876353,-1.4860452,1.4860452,3.5876353,417.73023,715.73613)" style="fill:#7e0000;fill-opacity:1" id="path3717"/><path d="M 32.000001,1.0658141e-014 L 54.627418,9.3725836 L 64,32.000001 L 54.627416,54.627418 L 31.999999,64 L 9.3725824,54.627416 L 1.0658141e-014,31.999999 L 9.3725836,9.3725824 L 32.000001,1.0658141e-014 z" transform="matrix(3.5876353,-1.4860452,1.4860452,3.5876353,425.24338,723.24928)" style="fill:#000;fill-opacity:.25657893;filter:url(#filter5068)" id="path5042"/><path d="M 32.000001,1.0658141e-014 L 54.627418,9.3725836 L 64,32.000001 L 54.627416,54.627418 L 31.999999,64 L 9.3725824,54.627416 L 1.0658141e-014,31.999999 L 9.3725836,9.3725824 L 32.000001,1.0658141e-014 z" transform="matrix(3.3778534,-1.3991511,1.3991511,3.3778534,427.22392,719.66855)" style="fill:#e78a8a;fill-opacity:1" id="path3741"/><path d="M 32.000001,1.0658141e-014 L 54.627418,9.3725836 L 64,32.000001 L 54.627416,54.627418 L 31.999999,64 L 9.3725824,54.627416 L 1.0658141e-014,31.999999 L 9.3725836,9.3725824 L 32.000001,1.0658141e-014 z" transform="matrix(3.0836017,-1.2772686,1.2772686,3.0836017,440.54023,725.18436)" style="fill:url(#linearGradient5125);fill-opacity:1" id="path3743"/><path d="M 74.625,56.9375 L 56.9375,74.625 L 99.15625,116.84375 L 56.9375,159.0625 L 74.625,176.75 L 116.84375,134.53125 L 159.0625,176.75 L 176.75,159.0625 L 134.53125,116.84375 L 176.75,74.625 L 159.0625,56.9375 L 116.84375,99.15625 L 74.625,56.9375 z" transform="translate(463.84454,666.74359)" style="fill:#fdeeee;fill-opacity:1;fill-rule:evenodd;stroke:none;stroke-width:25;stroke-linecap:butt;stroke-linejoin:miter;stroke-miterlimit:4;stroke-dasharray:none;stroke-opacity:1" id="path5139"/><path d="M 535.2741,674.9233 L 471.99929,738.19812 L 471.99929,765.37946 C 558.38932,785.44115 593.76927,739.43264 688.23715,764.37675 L 688.23715,738.19812 L 624.84494,674.9233 L 535.2741,674.9233 z" style="fill:url(#linearGradient5153);fill-opacity:1" id="path5021"/></g></g></svg>